# xmcd
# 
# Track frame offsets:
#     150
#     14293
#     29040
#     39922
#     49241
#     63722
#     85680
#     100833
#     110887
#     128015
#     145138
# 
# Disc length: 2349
# 
# Revision: 1
# Processed by: cddbd v1.5.2PL0 Copyright (c) Steve Scherf et al.
# Submitted via: fre:ac v1.0.17
# 
DISCID=96092b0b
DTITLE=First Flower Power - Don't Back Down
DYEAR=2008
DGENRE=Pop
TTITLE0=Lovesong
TTITLE1=God Damn Your Fingers
TTITLE2=The Jacket
TTITLE3=People In The Shadow
TTITLE4=No Money And A Fee
TTITLE5=Road Is Long
TTITLE6=To Do List
TTITLE7=Silly Dream And The Flying Kite
TTITLE8=Holding The Ladder
TTITLE9=It's An Interview
TTITLE10=Apparently
EXTD=
EXTT0=
EXTT1=
EXTT2=
EXTT3=
EXTT4=
EXTT5=
EXTT6=
EXTT7=
EXTT8=
EXTT9=
EXTT10=
PLAYORDER=
